<svg width="72" height="72" viewBox="0 0 72 72" fill="none" xmlns="http://www.w3.org/2000/svg">
<path fill-rule="evenodd" clip-rule="evenodd" d="M9.91341 18.111C8.25655 18.111 6.91341 19.4541 6.91341 21.111L6.91341 37.277L1.74902 37.277L10.1563 53.5624L18.5635 37.277L13.4011 37.277L13.4011 21.111C13.4011 19.4541 12.0579 18.111 10.4011 18.111L9.91341 18.111Z" fill="url(#paint0_linear_221_5196)"/>
<path fill-rule="evenodd" clip-rule="evenodd" d="M49.9104 14.5365C47.4651 11.9362 43.2672 11.9374 40.8234 14.5391L39.4731 15.9767C38.8313 16.66 37.8454 16.923 36.9374 16.6532L35.7174 16.2907C31.9477 15.1705 28.0844 17.7442 27.7727 21.5833L27.5807 23.9485C27.5016 24.9228 26.8288 25.7542 25.8769 26.0537L25.0146 26.3251C21.1045 27.5557 19.4937 32.1075 21.7901 35.4365L22.5213 36.4966C23.0605 37.2783 23.0844 38.2954 22.5824 39.1005L21.6277 40.6316C19.7131 43.702 20.9555 47.7173 24.2899 49.2361L26.1178 50.0687C26.1344 50.0763 26.151 50.084 26.1674 50.092H64.0042C64.1275 50.0138 64.2588 49.9458 64.397 49.8893L66.4591 49.0475C70.1458 47.5425 71.419 43.0617 69.0545 39.9139L68.4509 39.1104C67.8107 38.2582 67.8129 37.098 68.4561 36.2482L69.0086 35.5181C71.3019 32.488 70.2211 28.1671 66.7561 26.513L64.6761 25.5201C63.8993 25.1493 63.3776 24.4082 63.301 23.5665L63.1787 22.2235C62.8776 18.9173 59.8997 16.4705 56.5157 16.749L53.5214 16.9954C52.761 17.058 52.0138 16.7733 51.4974 16.2242L49.9104 14.5365Z" fill="url(#paint1_linear_221_5196)"/>
<path fill-rule="evenodd" clip-rule="evenodd" d="M49.9104 14.5365C47.4651 11.9362 43.2672 11.9374 40.8234 14.5391L39.4731 15.9767C38.8313 16.66 37.8454 16.923 36.9374 16.6532L35.7174 16.2907C31.9477 15.1705 28.0844 17.7442 27.7727 21.5833L27.5807 23.9485C27.5016 24.9228 26.8288 25.7542 25.8769 26.0537L25.0146 26.3251C21.1045 27.5557 19.4937 32.1075 21.7901 35.4365L22.5213 36.4966C23.0605 37.2783 23.0844 38.2954 22.5824 39.1005L21.6277 40.6316C19.7131 43.702 20.9555 47.7173 24.2899 49.2361L26.1178 50.0687C26.1344 50.0763 26.151 50.084 26.1674 50.092H64.0042C64.1275 50.0138 64.2588 49.9458 64.397 49.8893L66.4591 49.0475C70.1458 47.5425 71.419 43.0617 69.0545 39.9139L68.4509 39.1104C67.8107 38.2582 67.8129 37.098 68.4561 36.2482L69.0086 35.5181C71.3019 32.488 70.2211 28.1671 66.7561 26.513L64.6761 25.5201C63.8993 25.1493 63.3776 24.4082 63.301 23.5665L63.1787 22.2235C62.8776 18.9173 59.8997 16.4705 56.5157 16.749L53.5214 16.9954C52.761 17.058 52.0138 16.7733 51.4974 16.2242L49.9104 14.5365Z" fill="url(#paint2_radial_221_5196)"/>
<path fill-rule="evenodd" clip-rule="evenodd" d="M49.9104 14.5365C47.4651 11.9362 43.2672 11.9374 40.8234 14.5391L39.4731 15.9767C38.8313 16.66 37.8454 16.923 36.9374 16.6532L35.7174 16.2907C31.9477 15.1705 28.0844 17.7442 27.7727 21.5833L27.5807 23.9485C27.5016 24.9228 26.8288 25.7542 25.8769 26.0537L25.0146 26.3251C21.1045 27.5557 19.4937 32.1075 21.7901 35.4365L22.5213 36.4966C23.0605 37.2783 23.0844 38.2954 22.5824 39.1005L21.6277 40.6316C19.7131 43.702 20.9555 47.7173 24.2899 49.2361L26.1178 50.0687C26.1344 50.0763 26.151 50.084 26.1674 50.092H64.0042C64.1275 50.0138 64.2588 49.9458 64.397 49.8893L66.4591 49.0475C70.1458 47.5425 71.419 43.0617 69.0545 39.9139L68.4509 39.1104C67.8107 38.2582 67.8129 37.098 68.4561 36.2482L69.0086 35.5181C71.3019 32.488 70.2211 28.1671 66.7561 26.513L64.6761 25.5201C63.8993 25.1493 63.3776 24.4082 63.301 23.5665L63.1787 22.2235C62.8776 18.9173 59.8997 16.4705 56.5157 16.749L53.5214 16.9954C52.761 17.058 52.0138 16.7733 51.4974 16.2242L49.9104 14.5365Z" fill="url(#paint3_radial_221_5196)"/>
<path fill-rule="evenodd" clip-rule="evenodd" d="M49.9104 14.5365C47.4651 11.9362 43.2672 11.9374 40.8234 14.5391L39.4731 15.9767C38.8313 16.66 37.8454 16.923 36.9374 16.6532L35.7174 16.2907C31.9477 15.1705 28.0844 17.7442 27.7727 21.5833L27.5807 23.9485C27.5016 24.9228 26.8288 25.7542 25.8769 26.0537L25.0146 26.3251C21.1045 27.5557 19.4937 32.1075 21.7901 35.4365L22.5213 36.4966C23.0605 37.2783 23.0844 38.2954 22.5824 39.1005L21.6277 40.6316C19.7131 43.702 20.9555 47.7173 24.2899 49.2361L26.1178 50.0687C26.1344 50.0763 26.151 50.084 26.1674 50.092H64.0042C64.1275 50.0138 64.2588 49.9458 64.397 49.8893L66.4591 49.0475C70.1458 47.5425 71.419 43.0617 69.0545 39.9139L68.4509 39.1104C67.8107 38.2582 67.8129 37.098 68.4561 36.2482L69.0086 35.5181C71.3019 32.488 70.2211 28.1671 66.7561 26.513L64.6761 25.5201C63.8993 25.1493 63.3776 24.4082 63.301 23.5665L63.1787 22.2235C62.8776 18.9173 59.8997 16.4705 56.5157 16.749L53.5214 16.9954C52.761 17.058 52.0138 16.7733 51.4974 16.2242L49.9104 14.5365Z" fill="url(#paint4_radial_221_5196)"/>
<path fill-rule="evenodd" clip-rule="evenodd" d="M49.9104 14.5365C47.4651 11.9362 43.2672 11.9374 40.8234 14.5391L39.4731 15.9767C38.8313 16.66 37.8454 16.923 36.9374 16.6532L35.7174 16.2907C31.9477 15.1705 28.0844 17.7442 27.7727 21.5833L27.5807 23.9485C27.5016 24.9228 26.8288 25.7542 25.8769 26.0537L25.0146 26.3251C21.1045 27.5557 19.4937 32.1075 21.7901 35.4365L22.5213 36.4966C23.0605 37.2783 23.0844 38.2954 22.5824 39.1005L21.6277 40.6316C19.7131 43.702 20.9555 47.7173 24.2899 49.2361L26.1178 50.0687C26.1344 50.0763 26.151 50.084 26.1674 50.092H64.0042C64.1275 50.0138 64.2588 49.9458 64.397 49.8893L66.4591 49.0475C70.1458 47.5425 71.419 43.0617 69.0545 39.9139L68.4509 39.1104C67.8107 38.2582 67.8129 37.098 68.4561 36.2482L69.0086 35.5181C71.3019 32.488 70.2211 28.1671 66.7561 26.513L64.6761 25.5201C63.8993 25.1493 63.3776 24.4082 63.301 23.5665L63.1787 22.2235C62.8776 18.9173 59.8997 16.4705 56.5157 16.749L53.5214 16.9954C52.761 17.058 52.0138 16.7733 51.4974 16.2242L49.9104 14.5365Z" fill="url(#paint5_radial_221_5196)"/>
<path fill-rule="evenodd" clip-rule="evenodd" d="M49.9104 14.5365C47.4651 11.9362 43.2672 11.9374 40.8234 14.5391L39.4731 15.9767C38.8313 16.66 37.8454 16.923 36.9374 16.6532L35.7174 16.2907C31.9477 15.1705 28.0844 17.7442 27.7727 21.5833L27.5807 23.9485C27.5016 24.9228 26.8288 25.7542 25.8769 26.0537L25.0146 26.3251C21.1045 27.5557 19.4937 32.1075 21.7901 35.4365L22.5213 36.4966C23.0605 37.2783 23.0844 38.2954 22.5824 39.1005L21.6277 40.6316C19.7131 43.702 20.9555 47.7173 24.2899 49.2361L26.1178 50.0687C26.1344 50.0763 26.151 50.084 26.1674 50.092H64.0042C64.1275 50.0138 64.2588 49.9458 64.397 49.8893L66.4591 49.0475C70.1458 47.5425 71.419 43.0617 69.0545 39.9139L68.4509 39.1104C67.8107 38.2582 67.8129 37.098 68.4561 36.2482L69.0086 35.5181C71.3019 32.488 70.2211 28.1671 66.7561 26.513L64.6761 25.5201C63.8993 25.1493 63.3776 24.4082 63.301 23.5665L63.1787 22.2235C62.8776 18.9173 59.8997 16.4705 56.5157 16.749L53.5214 16.9954C52.761 17.058 52.0138 16.7733 51.4974 16.2242L49.9104 14.5365Z" fill="url(#paint6_radial_221_5196)"/>
<path fill-rule="evenodd" clip-rule="evenodd" d="M49.9104 14.5365C47.4651 11.9362 43.2672 11.9374 40.8234 14.5391L39.4731 15.9767C38.8313 16.66 37.8454 16.923 36.9374 16.6532L35.7174 16.2907C31.9477 15.1705 28.0844 17.7442 27.7727 21.5833L27.5807 23.9485C27.5016 24.9228 26.8288 25.7542 25.8769 26.0537L25.0146 26.3251C21.1045 27.5557 19.4937 32.1075 21.7901 35.4365L22.5213 36.4966C23.0605 37.2783 23.0844 38.2954 22.5824 39.1005L21.6277 40.6316C19.7131 43.702 20.9555 47.7173 24.2899 49.2361L26.1178 50.0687C26.1344 50.0763 26.151 50.084 26.1674 50.092H64.0042C64.1275 50.0138 64.2588 49.9458 64.397 49.8893L66.4591 49.0475C70.1458 47.5425 71.419 43.0617 69.0545 39.9139L68.4509 39.1104C67.8107 38.2582 67.8129 37.098 68.4561 36.2482L69.0086 35.5181C71.3019 32.488 70.2211 28.1671 66.7561 26.513L64.6761 25.5201C63.8993 25.1493 63.3776 24.4082 63.301 23.5665L63.1787 22.2235C62.8776 18.9173 59.8997 16.4705 56.5157 16.749L53.5214 16.9954C52.761 17.058 52.0138 16.7733 51.4974 16.2242L49.9104 14.5365Z" fill="url(#paint7_radial_221_5196)" fill-opacity="0.2"/>
<path fill-rule="evenodd" clip-rule="evenodd" d="M28.844 50.0916H62.1346C64.0812 47.0348 65.209 43.4057 65.209 39.5132C65.209 28.6223 56.3802 19.7935 45.4893 19.7935C34.5984 19.7935 25.7695 28.6223 25.7695 39.5132C25.7695 43.4057 26.8973 47.0348 28.844 50.0916Z" fill="url(#paint8_linear_221_5196)"/>
<path d="M26.1167 56.1235C26.1167 54.3066 27.5896 52.8337 29.4065 52.8337H61.5733C63.3902 52.8337 64.8631 54.3066 64.8631 56.1235C64.8631 57.9404 63.3902 59.4133 61.5733 59.4133H29.4065C27.5896 59.4133 26.1167 57.9404 26.1167 56.1235Z" fill="url(#paint9_linear_221_5196)"/>
<defs>
<linearGradient id="paint0_linear_221_5196" x1="10.1563" y1="11.594" x2="30.004" y2="20.7935" gradientUnits="userSpaceOnUse">
<stop offset="0.163934" stop-color="#326BFE"/>
<stop offset="0.865616" stop-color="#2295FF"/>
</linearGradient>
<linearGradient id="paint1_linear_221_5196" x1="60.8288" y1="25.3666" x2="17.7144" y2="61.9197" gradientUnits="userSpaceOnUse">
<stop stop-color="#FFD93E"/>
<stop offset="1" stop-color="#FFC72F"/>
</linearGradient>
<radialGradient id="paint2_radial_221_5196" cx="0" cy="0" r="1" gradientUnits="userSpaceOnUse" gradientTransform="translate(50.2482 15.8849) rotate(126.577) scale(8.67831 7.373)">
<stop offset="0.300161" stop-color="#FFC83A"/>
<stop offset="1" stop-color="#FFBC3A" stop-opacity="0"/>
</radialGradient>
<radialGradient id="paint3_radial_221_5196" cx="0" cy="0" r="1" gradientUnits="userSpaceOnUse" gradientTransform="translate(32.187 12.587) rotate(74.8351) scale(15.9327 10.1498)">
<stop offset="0.300161" stop-color="#FFD02A"/>
<stop offset="1" stop-color="#FF902A" stop-opacity="0"/>
</radialGradient>
<radialGradient id="paint4_radial_221_5196" cx="0" cy="0" r="1" gradientUnits="userSpaceOnUse" gradientTransform="translate(61.8259 28.0811) rotate(-157.686) scale(4.58878 8.79189)">
<stop offset="0.300161" stop-color="#FFCE22"/>
<stop offset="1" stop-color="#FFAF36" stop-opacity="0"/>
</radialGradient>
<radialGradient id="paint5_radial_221_5196" cx="0" cy="0" r="1" gradientUnits="userSpaceOnUse" gradientTransform="translate(72.9795 36.2887) rotate(144.872) scale(11.3725 10.303)">
<stop offset="0.300161" stop-color="#FFDB5B"/>
<stop offset="1" stop-color="#FF9A03" stop-opacity="0"/>
</radialGradient>
<radialGradient id="paint6_radial_221_5196" cx="0" cy="0" r="1" gradientUnits="userSpaceOnUse" gradientTransform="translate(19.7603 39.2318) rotate(35.399) scale(6.81761 10.0767)">
<stop stop-color="#F0B51D"/>
<stop offset="1" stop-color="#FFB800" stop-opacity="0"/>
</radialGradient>
<radialGradient id="paint7_radial_221_5196" cx="0" cy="0" r="1" gradientUnits="userSpaceOnUse" gradientTransform="translate(25.1327 28.5004) rotate(61.3895) scale(14.0962)">
<stop stop-color="#FFB72B"/>
<stop offset="0.784395" stop-color="#FFD027" stop-opacity="0"/>
</radialGradient>
<linearGradient id="paint8_linear_221_5196" x1="57.7045" y1="30.1174" x2="35.4954" y2="40.858" gradientUnits="userSpaceOnUse">
<stop stop-color="#FF8E28"/>
<stop offset="1" stop-color="#E76015"/>
</linearGradient>
<linearGradient id="paint9_linear_221_5196" x1="16.8475" y1="56.1232" x2="29.2821" y2="79.0415" gradientUnits="userSpaceOnUse">
<stop offset="0.435908" stop-color="#F57703"/>
<stop offset="0.935343" stop-color="#FAC90B"/>
</linearGradient>
</defs>
</svg>
